<svg width="29" height="38" viewBox="0 0 29 38" fill="none" xmlns="http://www.w3.org/2000/svg">
<path d="M23.8214 10.4286H5.17858M23.8214 10.4286C24.3708 10.4286 24.8977 10.6543 25.2862 11.0562C25.6746 11.4581 25.8929 12.0031 25.8929 12.5714V16.8572C25.8929 17.4255 25.6746 17.9705 25.2862 18.3724C24.8977 18.7742 24.3708 19 23.8214 19M23.8214 10.4286L21.75 5.07144H7.25L5.17858 10.4286M5.17858 10.4286C4.6292 10.4286 4.10232 10.6543 3.71385 11.0562C3.32539 11.4581 3.10715 12.0031 3.10715 12.5714V16.8572C3.10715 17.4255 3.32539 17.9705 3.71385 18.3724C4.10232 18.7742 4.6292 19 5.17858 19M5.17858 19H23.8214M5.17858 19L7.25 32.9286H21.75L23.8214 19" stroke="#ADA3A1" stroke-linecap="round" stroke-linejoin="round"/>
</svg>