<svg width="29" height="30" viewBox="0 0 29 30" fill="none" xmlns="http://www.w3.org/2000/svg">
<path d="M23.8215 6.42858H5.17861M23.8215 6.42858C24.3708 6.42858 24.8977 6.65435 25.2862 7.05621C25.6747 7.45808 25.8929 8.00312 25.8929 8.57144V12.8572C25.8929 13.4255 25.6747 13.9705 25.2862 14.3724C24.8977 14.7742 24.3708 15 23.8215 15M23.8215 6.42858L21.75 1.07144H7.25003L5.17861 6.42858M5.17861 6.42858C4.62923 6.42858 4.10235 6.65435 3.71389 7.05621C3.32542 7.45808 3.10718 8.00312 3.10718 8.57144V12.8572C3.10718 13.4255 3.32542 13.9705 3.71389 14.3724C4.10235 14.7742 4.62923 15 5.17861 15M5.17861 15H23.8215M5.17861 15L7.25003 28.9286H21.75L23.8215 15" stroke="#ADA3A1" stroke-linecap="round" stroke-linejoin="round"/>
</svg>
