<svg width="39" height="38" viewBox="0 0 39 38" fill="none" xmlns="http://www.w3.org/2000/svg">
<path d="M18.2555 22.3264L10.4505 17.6042L2.69629 22.2924L10.5013 27.0147L18.2555 22.3264Z" stroke="#ADA3A1" stroke-linecap="round" stroke-linejoin="round"/>
<path d="M10.5013 27.0147L2.69629 22.2924V31.6736L10.5013 36.3958M10.5013 27.0147V36.3958M10.5013 27.0147L18.2555 22.3264V31.7075L10.5013 36.3958" stroke="#ADA3A1" stroke-linecap="round" stroke-linejoin="round"/>
<path d="M36.2555 22.3264L28.4505 17.6042L20.6963 22.2924L28.5013 27.0147L36.2555 22.3264Z" stroke="#ADA3A1" stroke-linecap="round" stroke-linejoin="round"/>
<path d="M28.5013 27.0147L20.6963 22.2924V31.6736L28.5013 36.3958M28.5013 27.0147V36.3958M28.5013 27.0147L36.2555 22.3264V31.7075L28.5013 36.3958" stroke="#ADA3A1" stroke-linecap="round" stroke-linejoin="round"/>
<path d="M27.2555 6.32638L19.4505 1.60417L11.6963 6.29246L19.5013 11.0147L27.2555 6.32638Z" stroke="#ADA3A1" stroke-linecap="round" stroke-linejoin="round"/>
<path d="M19.5013 11.0147L11.6963 6.29247V15.6736L19.5013 20.3958M19.5013 11.0147V20.3958M19.5013 11.0147L27.2555 6.32638V15.7075L19.5013 20.3958" stroke="#ADA3A1" stroke-linecap="round" stroke-linejoin="round"/>
</svg>
