<svg width="27" height="31" viewBox="0 0 27 31" fill="none" xmlns="http://www.w3.org/2000/svg">
<path d="M22.0353 10.9792H23.1875V11.625C22.4422 15.2817 21.8958 19.0056 21.8958 22.7385V23.8958H20.7191M22.0353 10.9792C22.3453 9.03133 22.707 7.09125 23.1203 5.15891C23.1651 4.9488 23.1875 4.73611 23.1875 4.52083H3.81249C3.81249 4.73611 3.83488 4.9488 3.87966 5.15891C4.29299 7.09125 4.65466 9.03133 4.96466 10.9792H22.0353ZM20.7191 23.8958C20.6428 25.6015 20.6044 27.3086 20.6042 29.016V30.3542H6.39582V29.016C6.39582 27.3076 6.3575 25.6008 6.28086 23.8958M20.7191 23.8958H6.28086M6.28086 23.8958H5.10416V22.7385C5.10416 19.0056 4.55778 15.2817 3.81249 11.625V10.9792H4.96336M1.22916 4.52083V3.875L1.98607 3.49654C3.1553 2.91139 4.04449 1.88609 4.45832 0.645828H22.5417C22.9555 1.88609 23.8447 2.91139 25.0139 3.49654L25.7708 3.875V4.52083H1.22916Z" stroke="#ADA3A1"/>
</svg>
